<svg width="40" height="40" viewBox="0 0 40 40" fill="none" xmlns="http://www.w3.org/2000/svg">
<path d="M2.21006 7.73208C7.45209 -1.34738 21.3086 -1.78874 30.388 3.45329C39.4675 8.69531 42.5783 20.3052 37.3363 29.3846C32.0943 38.4641 19.8912 42.7834 10.8118 37.5414C1.7323 32.2994 -3.03196 16.8115 2.21006 7.73208ZM22.0444 13.3232C21.6716 13.3232 21.376 13.4356 21.1575 13.6606C20.9702 13.8534 20.8632 14.1005 20.8365 14.4019L20.8298 14.5571V21.652C20.8298 22.8088 20.5534 23.6892 20.0007 24.2933C19.4481 24.8974 18.6447 25.1994 17.5908 25.1994C16.524 25.1994 15.7142 24.9006 15.1615 24.3029C14.6514 23.7512 14.3767 22.9559 14.3374 21.9168L14.3325 21.652V14.5571C14.3325 14.1843 14.2233 13.8855 14.0048 13.6606C13.7863 13.4356 13.4906 13.3232 13.1179 13.3232C12.7452 13.3232 12.4495 13.4356 12.231 13.6606C12.0437 13.8534 11.9367 14.1005 11.91 14.4019L11.9033 14.5571V21.517C11.9033 23.3679 12.3853 24.7753 13.3493 25.7393C14.3132 26.7033 15.7271 27.1853 17.5908 27.1853C19.4416 27.1853 20.849 26.7 21.813 25.7296C22.7203 24.8163 23.2006 23.5187 23.254 21.8369L23.259 21.517V14.5571C23.259 14.1843 23.1497 13.8855 22.9312 13.6606C22.7127 13.4356 22.4171 13.3232 22.0444 13.3232ZM27.3463 13.3232C26.9735 13.3232 26.6747 13.4356 26.4498 13.6606C26.257 13.8534 26.1468 14.1005 26.1193 14.4019L26.1124 14.5571V25.8742C26.1124 26.247 26.2249 26.549 26.4498 26.7804C26.6747 27.0117 26.9735 27.1274 27.3463 27.1274C27.7319 27.1274 28.0371 27.0117 28.2621 26.7804C28.4549 26.5821 28.565 26.3318 28.5926 26.0297L28.5995 25.8742V14.5571C28.5995 14.1843 28.487 13.8855 28.2621 13.6606C28.0371 13.4356 27.7319 13.3232 27.3463 13.3232Z" fill="#242E4C"/>
</svg>
